external_pedal_forces_trial_4.mot
version=1
nRows=103
nColumns=7
inDegrees=yes
endheader
time	PedalClip_calcn_r_Fx	PedalClip_calcn_r_Fy	PedalClip_calcn_r_Fz	PedalClip_calcn_r_Px	PedalClip_calcn_r_Py	PedalClip_calcn_r_Pz
0.80511951	-34.0627962551232	46.1293410884357	506.012538955931	0.162847922783636	-0.108963847093613	0.089
0.80533694	-34.2569022334197	46.3411805882628	507.122618577229	0.162754449421979	-0.108645435696712	0.089
0.80564488	-34.4509617030856	46.5538923373146	508.234319985075	0.162661943372063	-0.108327490340347	0.089
0.80584942	-34.6449637640166	46.7673596445881	509.347123278992	0.16257045789848	-0.108009901148257	0.089
0.80616659	-34.8389116091898	46.9814749825797	510.460579542755	0.162480041413012	-0.107692562873121	0.089
0.80621006	-35.0328183398952	47.1961421771984	511.574304832934	0.162390737832926	-0.107375413002022	0.089
0.80633159	-35.2267019103247	47.4112685648663	512.687953518382	0.162302588310485	-0.107058421528733	0.089
0.80661104	-35.4205774884113	47.6267670763502	513.80120602061	0.162215629589303	-0.106741630304096	0.089
0.80671985	-35.6144679226408	47.8425602505031	514.913804096524	0.162129891695218	-0.106425077665497	0.089
0.80693346	-35.8083976575866	48.0585731587592	516.025511644064	0.162045402522975	-0.106108814690292	0.089
0.80725401	-36.0023791590005	48.2747337750883	517.136076371851	0.161962186609598	-0.105792920724949	0.089
0.80745736	-36.1964104225044	48.4909718336248	518.245219859942	0.161880266234869	-0.10547750326569	0.089
0.80782332	-36.3905038040661	48.7072208411539	519.352724675718	0.161799661425936	-0.105162630930702	0.089
0.80805263	-36.5846714955422	48.923414505894	520.458382081582	0.161720391908673	-0.104848424117005	0.089
0.80828195	-36.7789092572701	49.1394814397609	521.561938589817	0.161642477706549	-0.104535013979669	0.089
0.80851126	-36.9731798080788	49.3553401316284	522.663055430361	0.161565940384344	-0.104222606339926	0.089
0.80887463	-37.167410175573	49.5709014949142	523.761319009935	0.161490799296488	-0.103911422970193	0.089
0.80924441	-37.3614841027038	49.7860695133645	524.856234476551	0.161417071610672	-0.103601644664916	0.089
0.80928139	-37.5552366048538	50.0007405153815	525.947229407239	0.161344774596392	-0.103293464148821	0.089
0.80933033	-37.7484870937124	50.2148121222594	527.033730240853	0.161273920996947	-0.102987004494219	0.089
0.80957506	-37.9410984920658	50.4282032979959	528.115304233367	0.161204511871511	-0.102682283533933	0.089
0.80978877	-38.1329848560174	50.6408612712649	529.191689290717	0.161136539946366	-0.102379225657341	0.089
0.81009893	-38.3241134648683	50.852756116023	530.262751667895	0.161069988854908	-0.102077682354317	0.089
0.8101422	-38.5144938886435	51.0638745785287	531.328439042264	0.161004832965705	-0.101777486110972	0.089
0.81026154	-38.7041671750745	51.2742179206925	532.388795411454	0.160941039252008	-0.101478591564804	0.089
0.81053696	-38.8931745484732	51.4838043120183	533.443926726373	0.16087856852052	-0.101180998356567	0.089
0.81064632	-39.0815563974042	51.6926665446887	534.493999640779	0.160817376047857	-0.100884705086706	0.089
0.81085855	-39.2693434328443	51.9008504894933	535.539231795375	0.16075741446186	-0.100589713084184	0.089
0.8111211	-39.4565605291073	52.1084231034092	536.579905204243	0.160698631420928	-0.100296049682748	0.089
0.81132011	-39.6432272789527	52.3154717665646	537.616357982468	0.160640970966065	-0.100003766742632	0.089
0.81167963	-39.8293468398141	52.522091437763	538.648922775871	0.16058437812111	-0.0997129233481471	0.089
0.81187788	-40.0149296001714	52.7283915144957	539.677998131054	0.160528797499513	-0.0994235561583542	0.089
0.81211669	-40.2000001373218	52.9344900040971	540.704060048236	0.160474175855861	-0.0991356724167914	0.089
0.81219995	-40.3845929593563	53.1404914880083	541.727572668131	0.160420466215204	-0.0988492407914602	0.089
0.81240248	-40.5687459717086	53.3464917530727	542.748966794874	0.160367627481799	-0.0985642273340319	0.089
0.81266002	-40.7525041082236	53.5525790592985	543.768642909063	0.160315624986884	-0.0982805713817102	0.089
0.81271424	-40.9359117984772	53.7588203648618	544.786915019909	0.160264433402688	-0.0979981949814663	0.089
0.81281891	-41.1190179524136	53.9652652873149	545.804055878075	0.160214033739351	-0.0977170122489549	0.089
0.81311295	-41.3018665437478	54.1719424325847	546.820283360661	0.160164412633193	-0.0974369504317223	0.089
0.81322916	-41.4844814514896	54.3788474012698	547.835733810965	0.160115561327573	-0.0971579629820381	0.089
0.81344888	-41.6668653163199	54.5859543784263	548.850481148587	0.160067477538346	-0.0968800150102987	0.089
0.81368957	-41.849013803567	54.7932267388875	549.864522611645	0.160020166686214	-0.096603077421443	0.089
0.81388706	-42.0309175533725	55.0006223363382	550.877790646371	0.159973637772581	-0.0963271215008595	0.089
0.81414364	-42.2125740766944	55.2081072894458	551.890198924323	0.159927898610967	-0.0960521131509605	0.089
0.81434074	-42.3939843699897	55.4156630018033	552.901665872482	0.159882951171976	-0.0957780091142021	0.089
0.81466144	-42.5751490927283	55.6232902004085	553.91214442161	0.159838786285457	-0.0955047589446692	0.089
0.81469351	-42.7560786191471	55.8310066274773	554.921643970631	0.15979538358996	-0.0952323165042455	0.089
0.81481721	-42.9367869729749	56.0388308300603	555.930184914754	0.159752722971184	-0.0949606569816679	0.089
0.81503787	-43.1172850752968	56.2467761587674	556.937767634584	0.159710787198276	-0.0946897741113798	0.089
0.81511104	-43.2975739999031	56.4548477839778	557.944347677527	0.159669562375662	-0.094419666490192	0.089
0.81530657	-43.477646302778	56.6630430600899	558.949829038078	0.15962903761421	-0.0941503402263314	0.089
0.8156634	-43.657494764752	56.8713552039986	559.954077708994	0.159589200975249	-0.0938818645912311	0.089
0.81569908	-43.8371132050969	57.0797761828277	560.956939679951	0.159550039084954	-0.0936143518665082	0.089
0.81581219	-44.0165012343294	57.2883002731576	561.958266547218	0.159511537337932	-0.0933479555205076	0.089
0.81601399	-44.1956577703654	57.4969254219914	562.95792194767	0.159473682263249	-0.0930827792803953	0.089
0.81610195	-44.3745767995227	57.7056489672433	563.955756328625	0.15943646393342	-0.0928188517729758	0.089
0.81629626	-44.5532400319897	57.9144577018971	564.951565538572	0.159399880514794	-0.0925561535144183	0.089
0.81655806	-44.7316309319747	58.1233353223848	565.945143781672	0.159363935409626	-0.0922946146405365	0.089
0.81661455	-44.909745726598	58.3322713486861	566.936345414207	0.159328633890274	-0.0920341314560314	0.089
0.81671997	-45.0876001653374	58.5412615872579	567.925099537783	0.159293982787362	-0.0917745747291131	0.089
0.81705693	-45.2652236160481	58.750314998224	568.91143828625	0.159259987725077	-0.0915158003365032	0.089
0.81720247	-45.4426507427443	58.9594565323261	569.89549928684	0.159226651093924	-0.091257665643623	0.089
0.8174114	-45.6199282538336	59.1687290145885	570.877532144618	0.159193971519973	-0.091000057232575	0.089
0.81762778	-45.7971140097999	59.3781943537724	571.857891404482	0.159161942600267	-0.0907429209181088	0.089
0.81782272	-45.9742744117222	59.587927703065	572.83699524841	0.159130554203255	-0.0904862250829452	0.089
0.81804173	-46.1514814029683	59.7980137807588	573.815293507055	0.159099792436888	-0.0902299325552978	0.089
0.81823657	-46.3288198691167	60.0085487296444	574.79328233491	0.159069638749886	-0.08997397809531	0.089
0.81849052	-46.5063795225754	60.2196275298354	575.771453385443	0.159040069805235	-0.0897182504322348	0.089
0.81868281	-46.6842458576928	60.4313372806254	576.750272231994	0.159011061284322	-0.0894626226851438	0.089
0.8190347	-46.8624897216668	60.6437465401975	577.730131144329	0.158982593122351	-0.089207009759355	0.089
0.81906989	-47.0411795311039	60.8569159140538	578.711420829995	0.158954649326049	-0.0889514347820935	0.089
0.81916982	-47.2204234793688	61.0709507835106	579.694790318877	0.158927215257851	-0.0886958889017157	0.089
0.81934778	-47.4003501135069	61.2859827693974	580.681018008182	0.158900277452713	-0.0884403157248349	0.089
0.81943852	-47.5810829951514	61.5021382832767	581.670843037536	0.158873824665606	-0.0881846413198836	0.089
0.81963634	-47.7627070052958	61.7195117985068	582.66482320699	0.158847850430622	-0.0879288287754629	0.089
0.81988168	-47.9452797398548	61.9381542771115	583.663342554342	0.158822351304366	-0.0876728375870311	0.089
0.81992896	-48.1288396173221	62.1580697684251	584.666612204084	0.158797325091026	-0.0874166392700466	0.089
0.82002984	-48.3134147812195	62.3792371655604	585.674748207763	0.158772770939866	-0.087160180358973	0.089
0.82024978	-48.4990213274409	62.6016089174356	586.687706297457	0.158748687713046	-0.0869034431113198	0.089
0.82032658	-48.6856684884362	62.8251296601438	587.705347668462	0.15872507278371	-0.0866464391885855	0.089
0.82051569	-48.8733706656656	63.0497524760651	588.727503985533	0.158701921730946	-0.086389148552784	0.089
0.82086299	-49.0621551696216	63.2754546018456	589.754042454409	0.158679228018077	-0.0861314742523043	0.089
0.82089772	-49.2520459379647	63.5022401708609	590.784859903529	0.158656985320678	-0.0858732825215965	0.089
0.82099603	-49.443052579833	63.7301447273672	591.819901645427	0.158635189018914	-0.0856144197965349	0.089
0.82117789	-49.6351587836576	63.959237987468	592.859175915338	0.158613837316566	-0.085354714157191	0.089
0.82128045	-49.8283432273021	64.1896376067915	593.902883604433	0.158592930236333	-0.0850939363114022	0.089
0.82145917	-50.0225925219572	64.4215090204337	594.951493401578	0.158572469893059	-0.0848318237542133	0.089
0.82170719	-50.2178995182095	64.655050314875	596.00572514164	0.158552461754854	-0.0845681965802658	0.089
0.82175638	-50.414290122226	64.8904858332398	597.066593714733	0.158532912901992	-0.0843029685586027	0.089
0.82185785	-50.6118336442999	65.1280485484729	598.135340751094	0.15851383012253	-0.0840362309901175	0.089
0.82210566	-50.8106501579634	65.3679581625853	599.213315199177	0.158495220005115	-0.0837681977923767	0.089
0.82218103	-51.0109035650098	65.6104065907894	600.30182752065	0.15847708753402	-0.0834991496545165	0.089
0.8223691	-51.212781905945	65.8555480863296	601.402014499433	0.158459435370995	-0.0832293347614579	0.089
0.82257275	-51.4164696709699	66.1034980719985	602.514756954078	0.15844226378638	-0.0829588689061192	0.089
0.82276406	-51.6221214335161	66.3543405421452	603.640671943081	0.158425570539668	-0.0826876575406016	0.089
0.82297594	-51.8298379816424	66.6081341341673	604.78013058776	0.158409351655381	-0.0824154370766168	0.089
0.82316589	-52.0396574922326	66.8649183496232	605.933298050885	0.158393602469063	-0.082141826473134	0.089
0.82340026	-52.2515439619928	67.1247024842112	607.100062785854	0.158378319951088	-0.081866396821178	0.089
0.82358858	-52.465422724584	67.387484015668	608.280194795588	0.158363502134641	-0.0815887223732846	0.089
0.82392744	-52.6812182419007	67.6532650749049	609.473491408282	0.158349147532663	-0.0813083419345844	0.089
0.82409429	-52.8988717986914	67.9220545970738	610.679822605547	0.158335255662099	-0.0810248154907109	0.089
0.82432312	-53.1183572967227	68.1938762237442	611.89918569234	0.158321826188392	-0.0807376593549609	0.089
0.82440086	-53.3396829718888	68.4687665178913	613.131702548676	0.15830885940293	-0.0804463418919507	0.089
